PathFileType	4	(X/Y/Z)	E:\Qualisys_Data\Carbon_Farble_Plate\Data\Amateur_Runner\S1\T1\S1T1V22_c3d.trc
DataRate	CameraRate	NumFrames	NumMarkers	Units	OrigDataRate	OrigDataStartFrame	OrigNumFrames
200.000000	200.000000	4	39	mm	200.000000	208	278
Frame#	Time	LSHO			RSHO			LICST			RICST			LASIS			LHEEL			RASIS			LTROC			RTROC			SACR			LTH1			LSK4			LTH2			LTH3			RHM5			LSK2			LTH4			RTH1			LTOE			RTH2			RTH3			RTH4			LLEP			RLEP			LSK1			LSK3			RSK1			LHM5			RSK2			LFT1			RSK3			RSK4			LLME			RLME			RTOE			RHEEL			RFT1			RFT2			LFT2			
		X1	Y1	Z1	X2	Y2	Z2	X3	Y3	Z3	X4	Y4	Z4	X5	Y5	Z5	X6	Y6	Z6	X7	Y7	Z7	X8	Y8	Z8	X9	Y9	Z9	X10	Y10	Z10	X11	Y11	Z11	X12	Y12	Z12	X13	Y13	Z13	X14	Y14	Z14	X15	Y15	Z15	X16	Y16	Z16	X17	Y17	Z17	X18	Y18	Z18	X19	Y19	Z19	X20	Y20	Z20	X21	Y21	Z21	X22	Y22	Z22	X23	Y23	Z23	X24	Y24	Z24	X25	Y25	Z25	X26	Y26	Z26	X27	Y27	Z27	X28	Y28	Z28	X29	Y29	Z29	X30	Y30	Z30	X31	Y31	Z31	X32	Y32	Z32	X33	Y33	Z33	X34	Y34	Z34	X35	Y35	Z35	X36	Y36	Z36	X37	Y37	Z37	X38	Y38	Z38	X39	Y39	Z39	

209	1.04	1628.358764648438	1454.429565429688	-477.2083435058594	1682.588623046875	1464.834228515625	-153.4414672851562	1617.675659179688	1010.334533691406	-420.5813903808594	1635.767211914062	1009.294921875	-120.5452423095703	1664.448364257812	972.1508178710938	-399.0823974609375	1679.133911132812	75.38407135009766	-301.0771789550781	1670.057250976562	958.9298706054688	-133.7111206054688	1568.035400390625	884.9674682617188	-442.7159729003906	1553.489013671875	876.9215698242188	-98.81339263916016	1509.478881835938	1025.781616210938	-260.6208190917969	1735.747192382812	772.26953125	-416.33447265625	1688.021240234375	216.6809844970703	-339.9085388183594	1663.1044921875	737.9424438476562	-444.9583129882812	1770.6337890625	675.4396362304688	-397.8612365722656	1108.95458984375	300.2153930664062	-132.4442749023438	1697.814331054688	311.2035827636719	-382.0917663574219	1692.33544921875	644.9713745117188	-417.9850463867188	1664.69677734375	733.470458984375	-123.0230941772461	1934.667846679688	75.44195556640625	-313.573486328125	1588.697265625	737.8055419921875	-97.6694107055664	1657.797729492188	632.1827392578125	-126.4383163452148	1578.182739257812	638.1484985351562	-112.1019515991211	1769.235595703125	514.2495727539062	-375.8295288085938	1578.451293945312	472.9997863769531	-141.4295043945312	1781.144775390625	301.950927734375	-370.3321838378906	1763.916015625	202.2527465820312	-360.1665954589844	1401.9072265625	432.9597473144531	-131.0104827880859	1868.190551757812	61.7177619934082	-369.8569641113281	1390.960693359375	511.8078308105469	-150.5267181396484	1690.213012695312	50.19750213623047	-272.0176086425781	1304.461791992188	414.6912231445312	-146.9516143798828	1294.422241210938	491.2740478515625	-172.5689392089844	1727.97998046875	89.82243347167969	-351.768798828125	1173.011352539062	430.3994140625	-152.4160461425781	1141.1826171875	231.6481781005859	-205.8301086425781	1133.218139648438	487.3326416015625	-198.9761352539062	1107.215576171875	473.0102844238281	-232.2284088134766	1107.100708007812	481.9220275878906	-173.7384490966797	1681.612915039062	46.20343780517578	-325.1964721679688
210	1.045	1651.196655273438	1449.208740234375	-477.9849853515625	1702.288208007812	1460.105712890625	-152.9421997070312	1636.337768554688	1005.749145507812	-421.0742492675781	1655.2373046875	1004.402038574219	-120.3066635131836	1684.126831054688	968.419189453125	-398.805419921875	1681.304565429688	77.2726821899414	-299.394775390625	1690.398681640625	954.7102661132812	-133.9721374511719	1587.10595703125	880.039794921875	-443.2418823242188	1574.38623046875	871.1683959960938	-99.8933334350586	1528.819580078125	1021.263671875	-260.6294555664062	1755.389526367188	766.5065307617188	-416.8246459960938	1698.403198242188	217.9557495117188	-340.9219970703125	1681.844482421875	733.6050415039062	-446.58935546875	1788.293212890625	668.6876220703125	-399.4500427246094	1142.392456054688	302.4893493652344	-131.1297302246094	1712.837768554688	312.0921325683594	-382.4650573730469	1709.622314453125	639.8150634765625	-419.6746826171875	1689.78125	730.1356811523438	-121.8507232666016	1936.606079101562	75.89793395996094	-312.9947509765625	1613.30322265625	732.7861938476562	-97.1329345703125	1685.53515625	628.8673095703125	-124.9843139648438	1605.795776367188	633.1917114257812	-110.6313705444336	1790.319702148438	510.1226196289062	-375.4166870117188	1611.343383789062	468.3569946289062	-140.0854339599609	1795.176635742188	299.2279357910156	-368.8569030761719	1774.169067382812	200.6356353759766	-359.0716247558594	1435.188110351562	430.760009765625	-129.9821472167969	1867.41015625	60.11206817626953	-368.1698608398438	1425.881591796875	509.5525817871094	-150.45166015625	1692.117553710938	50.92389297485352	-270.8872985839844	1337.513549804688	414.2758178710938	-146.7811889648438	1328.893676757812	490.6321716308594	-172.6361541748047	1732.0107421875	90.7934112548828	-350.3522033691406	1206.755004882812	432.0913696289062	-152.5487518310547	1175.167602539062	233.2255859375	-203.9266204833984	1166.69873046875	488.6634826660156	-200.2020416259766	1141.079833984375	473.9634399414062	-233.4202423095703	1140.279174804688	483.2663269042969	-175.2154693603516	1682.658081054688	48.71207427978516	-324.3149719238281
211	1.05	1673.837036132812	1444.408569335938	-479.1255187988281	1722.0869140625	1455.858032226562	-152.0152435302734	1655.679443359375	1001.8359375	-420.9911193847656	1674.7431640625	999.989013671875	-119.3385620117188	1702.339965820312	964.22119140625	-396.9193115234375	1683.426635742188	79.60121154785156	-297.9811096191406	1710.083129882812	950.3973999023438	-134.0380706787109	1606.0419921875	876.3076171875	-443.8145141601562	1595.527709960938	865.4505615234375	-100.7049942016602	1547.429443359375	1017.088745117188	-260.4153747558594	1775.555908203125	761.3726806640625	-418.6478271484375	1708.580322265625	220.6075439453125	-341.3901062011719	1700.435180664062	730.1484985351562	-446.4231872558594	1807.10107421875	663.1529541015625	-401.2267456054688	1177.259399414062	304.1456298828125	-129.3233184814453	1728.021606445312	314.0601501464844	-383.7027587890625	1724.938232421875	637.6300048828125	-423.4323120117188	1714.604125976562	727.603759765625	-120.6862716674805	1938.484375	69.48265075683594	-312.8875122070312	1637.913696289062	727.4953002929688	-97.19327545166016	1713.542846679688	625.8824462890625	-123.114631652832	1633.269165039062	627.9832153320312	-109.5478897094727	1812.354858398438	508.1616516113281	-374.7240905761719	1644.686279296875	464.5987243652344	-138.8717498779297	1809.718627929688	298.4851684570312	-367.21630859375	1784.806396484375	200.7421112060547	-357.3594055175781	1469.145263671875	429.0670471191406	-128.6784820556641	1867.677124023438	57.9442253112793	-367.64892578125	1460.714111328125	507.8224182128906	-150.3575592041016	1693.27392578125	52.51601409912109	-270.30419921875	1371.489013671875	414.0722045898438	-145.7305603027344	1363.7724609375	490.0601501464844	-172.2665710449219	1733.789428710938	93.27322387695312	-348.54931640625	1240.736694335938	432.9714965820312	-152.4732818603516	1210.765747070312	233.809814453125	-200.3535308837891	1200.580810546875	489.4288635253906	-200.9974517822266	1175.17822265625	474.3570251464844	-234.4859771728516	1173.947509765625	483.974853515625	-176.092529296875	1683.847534179688	51.48631286621094	-323.656494140625
212	1.055	1696.675415039062	1439.704223632812	-480.0107116699219	1741.677490234375	1451.750366210938	-151.2293243408203	1673.932373046875	998.3540649414062	-421.2517395019531	1693.914184570312	996.0108642578124	-119.6248168945312	1721.08642578125	960.3443603515624	-396.4539794921875	1685.900268554688	82.28949737548828	-297.5125122070312	1729.53662109375	946.4691162109376	-134.0004577636719	1624.581298828125	874.2423706054688	-443.8448486328125	1616.005493164062	859.6140747070312	-102.522216796875	1565.718505859375	1013.080871582031	-259.5103759765625	1796.468139648438	758.532958984375	-421.3889465332031	1718.30224609375	223.886474609375	-341.4075622558594	1719.755493164062	727.5918579101562	-445.6580200195312	1826.800048828125	660.8385009765625	-402.3105773925781	1212.729858398438	305.1821594238281	-128.2872314453125	1743.895629882812	315.9203796386719	-384.4393310546875	1746.041381835938	634.6676635742188	-421.5794067382812	1739.6953125	725.1416625976562	-120.1639404296875	1940.29638671875	66.66080474853516	-313.4691467285156	1662.77197265625	723.6704711914062	-96.6965789794922	1741.75341796875	623.3936157226562	-121.3835754394531	1661.13037109375	623.5806884765625	-108.3771209716797	1833.369873046875	507.4784545898438	-374.1791381835938	1678.09375	461.0245666503906	-138.0072784423828	1824.126953125	297.1691589355469	-365.4281005859375	1794.223510742188	201.4286956787109	-355.1582336425781	1503.545288085938	427.1383972167969	-128.2842407226562	1871.023315429688	58.80180740356445	-368.5312194824219	1496.01171875	505.74755859375	-149.7920837402344	1694.410400390625	54.40012359619141	-270.1477355957031	1405.677978515625	413.0581359863281	-145.5895080566406	1399.041015625	489.1464233398438	-172.0716857910156	1735.958129882812	96.71858978271484	-347.0205078125	1275.2744140625	433.4209899902344	-152.3366241455078	1247.411376953125	233.9483795166016	-197.4132232666016	1234.700317382812	489.5037536621094	-201.9303894042969	1209.530639648438	473.5928649902344	-234.7657012939453	1208.237915039062	484.2339172363281	-177.1210479736328	1685.255981445312	54.24709701538086	-323.39697265625
